<svg width="245" height="43" viewBox="0 0 245 43" fill="none" xmlns="http://www.w3.org/2000/svg">
<g clip-path="url(#clip0_1157_7556)">
<path d="M56.3674 28.6415L55.0435 24.2962H48.3881L47.0642 28.6415H42.8936L49.3367 10.3125H54.069L60.5371 28.6415H56.3674ZM54.1199 21.0501C52.8967 17.1128 52.2074 14.8864 52.0538 14.3698C51.9001 13.8543 51.7897 13.4462 51.7225 13.1457C51.4479 14.2114 50.6616 16.8459 49.3626 21.0492L54.1199 21.0501Z" fill="white"/>
<path d="M74.8061 16.08C74.8061 18.0444 74.1926 19.5469 72.9646 20.5877C71.7367 21.6284 69.9903 22.1488 67.7264 22.1488H66.0654V28.6409H62.1953V10.3867H68.0259C70.2399 10.3867 71.9239 10.8629 73.076 11.8163C74.2291 12.7697 74.8061 14.1906 74.8061 16.08ZM66.0664 18.9766H67.3395C68.53 18.9766 69.42 18.7414 70.0114 18.271C70.6028 17.8005 70.8976 17.116 70.8976 16.2173C70.8976 15.31 70.6498 14.6399 70.1544 14.2069C69.659 13.7739 68.8833 13.5579 67.8262 13.5579H66.0654V18.9766H66.0664Z" fill="white"/>
<path d="M77.6123 28.6409V10.3867H81.4824V28.6409H77.6123Z" fill="white"/>
<path d="M106.4 28.6409H102.541V20.7624H95.3115V28.6409H91.4414V10.3867H95.3115V17.5413H102.541V10.3867H106.4V28.6409Z" fill="white"/>
<path d="M119.957 28.6413L119.445 26.8555H119.246C118.837 27.5046 118.26 28.0067 117.51 28.36C116.761 28.7133 115.907 28.8909 114.95 28.8909C113.31 28.8909 112.074 28.4522 111.242 27.5737C110.41 26.6952 109.993 25.4327 109.993 23.7842V14.6816H113.802V22.8347C113.802 23.8418 113.98 24.5974 114.339 25.1005C114.697 25.6045 115.267 25.8561 116.049 25.8561C117.115 25.8561 117.885 25.4999 118.359 24.7885C118.834 24.077 119.071 22.8971 119.071 21.2486V14.6807H122.879V28.6394H119.958L119.957 28.6413Z" fill="white"/>
<path d="M134.002 14.4204C135.65 14.4204 136.939 15.0637 137.872 16.3492C138.804 17.6348 139.27 19.3975 139.27 21.6374C139.27 23.9435 138.789 25.7283 137.828 26.9937C136.867 28.2591 135.558 28.8918 133.902 28.8918C132.262 28.8918 130.975 28.2966 130.044 27.1061H129.782L129.145 28.6422H126.236V9.21387H130.045V13.734C130.045 14.3081 129.995 15.2279 129.895 16.4933H130.045C130.936 15.1117 132.255 14.4204 134.003 14.4204H134.002ZM132.777 17.4668C131.837 17.4668 131.15 17.7558 130.717 18.3347C130.284 18.9136 130.059 19.868 130.043 21.2006V21.6124C130.043 23.1111 130.266 24.1845 130.711 24.8335C131.157 25.4826 131.861 25.8071 132.827 25.8071C133.61 25.8071 134.232 25.447 134.694 24.727C135.156 24.0069 135.387 22.9604 135.387 21.5865C135.387 20.2126 135.154 19.1834 134.688 18.496C134.221 17.8095 133.585 17.4658 132.777 17.4658V17.4668Z" fill="white"/>
<path d="M47.299 35.7597C47.299 36.4126 47.0762 36.9147 46.6308 37.2661C46.1853 37.6175 45.5478 37.7932 44.7183 37.7932H43.9598V40.3298H43.21V33.8799H44.8815C46.4935 33.8799 47.299 34.5068 47.299 35.7597ZM43.9598 37.149H44.6347C45.2991 37.149 45.7801 37.0415 46.0777 36.8274C46.3744 36.6123 46.5232 36.2686 46.5232 35.7953C46.5232 35.369 46.384 35.0512 46.1046 34.8419C45.8252 34.6326 45.3903 34.5289 44.7989 34.5289H43.9607V37.1499L43.9598 37.149Z" fill="white"/>
<path d="M52.9385 37.9082C52.9385 38.6965 52.7398 39.3119 52.3433 39.7545C51.9468 40.1971 51.3976 40.4179 50.6977 40.4179C50.2657 40.4179 49.8816 40.3161 49.5465 40.1135C49.2115 39.911 48.9523 39.6191 48.7698 39.2399C48.5874 38.8606 48.4962 38.4161 48.4962 37.9073C48.4962 37.119 48.693 36.5055 49.0876 36.0649C49.4813 35.6251 50.0285 35.4053 50.7284 35.4053C51.4053 35.4053 51.942 35.6299 52.3414 36.0802C52.7398 36.5305 52.9395 37.1392 52.9395 37.9073L52.9385 37.9082ZM49.2547 37.9082C49.2547 38.5256 49.3785 38.996 49.6253 39.3196C49.872 39.6431 50.2359 39.8044 50.715 39.8044C51.1941 39.8044 51.5579 39.6431 51.8066 39.3215C52.0553 38.9998 52.1791 38.5284 52.1791 37.9073C52.1791 37.2928 52.0553 36.8252 51.8066 36.5065C51.5579 36.1877 51.1912 36.0274 50.7054 36.0274C50.2263 36.0274 49.8643 36.1849 49.6205 36.4998C49.3766 36.8147 49.2547 37.2842 49.2547 37.9082Z" fill="white"/>
<path d="M58.3962 40.3291L57.5091 37.4921C57.4534 37.3183 57.3488 36.9247 57.1961 36.3092H57.1606C57.0435 36.8238 56.9398 37.2213 56.8515 37.5007L55.9384 40.3282H55.0916L53.7725 35.4932H54.5405C54.8526 36.7077 55.0897 37.6332 55.2529 38.2678C55.4161 38.9034 55.5093 39.3306 55.5333 39.5515H55.5688C55.6014 39.3834 55.6533 39.1674 55.7253 38.9005C55.7973 38.6346 55.8597 38.4234 55.9125 38.2678L56.7996 35.4932H57.5936L58.4586 38.2678C58.6228 38.7738 58.7352 39.1991 58.7937 39.5428H58.8292C58.8408 39.4372 58.8724 39.274 58.9243 39.0532C58.9752 38.8323 59.2824 37.6457 59.8441 35.4932H60.6025L59.2661 40.3282L58.3962 40.3291Z" fill="white"/>
<path d="M63.7443 40.4179C63.03 40.4179 62.4655 40.2009 62.0527 39.765C61.6398 39.3292 61.4324 38.7253 61.4324 37.9514C61.4324 37.1718 61.6245 36.5526 62.0085 36.0937C62.3925 35.6347 62.9081 35.4053 63.5552 35.4053C64.161 35.4053 64.6401 35.605 64.9934 36.0034C65.3467 36.4018 65.5224 36.928 65.5224 37.5808V38.0446H62.1919C62.2063 38.612 62.3503 39.043 62.622 39.3368C62.8937 39.6306 63.2768 39.7775 63.7712 39.7775C64.2916 39.7775 64.8062 39.669 65.315 39.4511V40.1039C65.0558 40.2153 64.811 40.296 64.5806 40.344C64.3501 40.3929 64.0708 40.4179 63.7443 40.4179ZM63.5456 36.0197C63.1577 36.0197 62.8476 36.1465 62.6172 36.399C62.3858 36.6515 62.2504 37.0019 62.2091 37.4493H64.7371C64.7371 36.9875 64.6343 36.6342 64.4279 36.3884C64.2225 36.1426 63.9277 36.0197 63.5456 36.0197Z" fill="white"/>
<path d="M69.2024 35.4062C69.4175 35.4062 69.6095 35.4235 69.7804 35.4591L69.6786 36.1388C69.4789 36.0946 69.3023 36.0726 69.1496 36.0726C68.7579 36.0726 68.4238 36.2319 68.1454 36.5488C67.8679 36.8665 67.7287 37.2621 67.7287 37.7354V40.3296H66.9962V35.4946H67.601L67.6845 36.3903H67.7201C67.8996 36.0754 68.1156 35.8325 68.3681 35.6626C68.6206 35.4917 68.8991 35.4062 69.2024 35.4062Z" fill="white"/>
<path d="M72.9535 40.4179C72.2392 40.4179 71.6747 40.2009 71.2618 39.765C70.849 39.3292 70.6416 38.7253 70.6416 37.9514C70.6416 37.1718 70.8336 36.5526 71.2177 36.0937C71.6017 35.6347 72.1173 35.4053 72.7644 35.4053C73.3702 35.4053 73.8493 35.605 74.2026 36.0034C74.5559 36.4018 74.7316 36.928 74.7316 37.5808V38.0446H71.401C71.4154 38.612 71.5594 39.043 71.8311 39.3368C72.1029 39.6306 72.4859 39.7775 72.9804 39.7775C73.5007 39.7775 74.0153 39.669 74.5242 39.4511V40.1039C74.265 40.2153 74.0201 40.296 73.7897 40.344C73.5593 40.3929 73.2799 40.4179 72.9535 40.4179ZM72.7548 36.0197C72.3669 36.0197 72.0568 36.1465 71.8263 36.399C71.595 36.6515 71.4596 37.0019 71.4183 37.4493H73.9462C73.9462 36.9875 73.8435 36.6342 73.6371 36.3884C73.4316 36.1426 73.1369 36.0197 72.7548 36.0197Z" fill="white"/>
<path d="M79.4965 39.6814H79.4571C79.1192 40.173 78.6132 40.4178 77.9392 40.4178C77.3065 40.4178 76.8149 40.2018 76.4635 39.7697C76.1122 39.3377 75.9365 38.7223 75.9365 37.9254C75.9365 37.1285 76.1131 36.5093 76.4655 36.0676C76.8188 35.626 77.3094 35.4061 77.9392 35.4061C78.5949 35.4061 79.098 35.6442 79.4475 36.1204H79.5051L79.4744 35.7719L79.4571 35.4321V33.4648H80.1897V40.3295H79.5944L79.4965 39.6814ZM78.0314 39.8043C78.5316 39.8043 78.8935 39.6689 79.1191 39.3963C79.3438 39.1246 79.4561 38.6858 79.4561 38.079V37.9245C79.4561 37.2389 79.3419 36.7503 79.1144 36.4574C78.8868 36.1646 78.522 36.0187 78.0227 36.0187C77.5936 36.0187 77.2643 36.1857 77.0367 36.5189C76.8092 36.853 76.6949 37.3244 76.6949 37.9331C76.6949 38.5504 76.8082 39.017 77.0348 39.3319C77.2614 39.6468 77.5936 39.8043 78.0314 39.8043Z" fill="white"/>
<path d="M86.7912 35.4148C87.4268 35.4148 87.9193 35.6318 88.2717 36.0657C88.6231 36.4997 88.7988 37.1132 88.7988 37.9081C88.7988 38.7031 88.6211 39.3195 88.2669 39.7582C87.9126 40.1979 87.421 40.4178 86.7912 40.4178C86.4763 40.4178 86.1883 40.3592 85.9291 40.2431C85.6689 40.1269 85.45 39.9483 85.2743 39.7073H85.2205L85.0659 40.3295H84.5408V33.4648H85.2733V35.1325C85.2733 35.506 85.2608 35.8411 85.2378 36.1387H85.2733C85.6142 35.6567 86.1201 35.4148 86.7912 35.4148ZM86.6846 36.0283C86.1844 36.0283 85.8244 36.1713 85.6036 36.4584C85.3828 36.7455 85.2733 37.2284 85.2733 37.9081C85.2733 38.5879 85.3866 39.0737 85.6132 39.3665C85.8398 39.6593 86.2027 39.8053 86.7029 39.8053C87.1532 39.8053 87.4882 39.6411 87.7091 39.3137C87.9299 38.9863 88.0403 38.5149 88.0403 37.8995C88.0403 37.2697 87.9299 36.8011 87.7091 36.492C87.4882 36.1829 87.1465 36.0283 86.6846 36.0283Z" fill="white"/>
<path d="M89.5361 35.4941H90.3215L91.3805 38.2515C91.6128 38.8813 91.7568 39.3355 91.8125 39.6148H91.848C91.8864 39.4651 91.9661 39.2078 92.088 38.8448C92.21 38.4819 92.6094 37.3644 93.2862 35.4941H94.0716L91.993 41.0002C91.7875 41.5446 91.5466 41.9306 91.272 42.1581C90.9964 42.3856 90.6594 42.4999 90.2591 42.4999C90.0354 42.4999 89.8155 42.4749 89.5976 42.425V41.8384C89.7598 41.8739 89.9403 41.8912 90.14 41.8912C90.6431 41.8912 91.0022 41.6089 91.2172 41.0444L91.4861 40.356L89.5361 35.4941Z" fill="white"/>
<path d="M100.783 38.6447C100.783 38.3951 100.695 38.2031 100.518 38.0687C100.341 37.9343 100.024 37.7941 99.5646 37.6453C99.1057 37.4974 98.7428 37.3505 98.4749 37.2065C97.7452 36.8129 97.3814 36.2819 97.3814 35.6137C97.3814 35.2662 97.4793 34.957 97.6742 34.6853C97.8701 34.4136 98.1504 34.2005 98.5172 34.0478C98.8839 33.8952 99.2939 33.8184 99.7509 33.8184C100.208 33.8184 100.619 33.9019 100.977 34.068C101.335 34.2341 101.614 34.4683 101.813 34.7717C102.012 35.0751 102.111 35.4188 102.111 35.8038H100.787C100.787 35.51 100.694 35.2806 100.509 35.1174C100.324 34.9541 100.064 34.8725 99.7278 34.8725C99.4043 34.8725 99.1527 34.9407 98.9732 35.078C98.7946 35.2143 98.7044 35.3948 98.7044 35.6185C98.7044 35.8278 98.81 36.0026 99.0202 36.1437C99.2305 36.2848 99.5396 36.4173 99.9486 36.5402C100.701 36.7668 101.251 37.0481 101.594 37.3832C101.938 37.7182 102.111 38.1359 102.111 38.6361C102.111 39.192 101.901 39.6279 101.48 39.9437C101.059 40.2596 100.494 40.418 99.7816 40.418C99.2871 40.418 98.8378 40.3278 98.4317 40.1463C98.0256 39.9648 97.7164 39.7181 97.5033 39.4032C97.2902 39.0883 97.1836 38.7244 97.1836 38.3097H98.5114C98.5114 39.0182 98.9348 39.3725 99.7816 39.3725C100.097 39.3725 100.342 39.3081 100.519 39.1804C100.696 39.0528 100.783 38.8742 100.783 38.6447Z" fill="#81E561"/>
<path d="M107.3 38.5965L107.927 35.5569H109.157L107.94 40.3304H106.872L105.968 37.3263L105.064 40.3304H104.001L102.783 35.5569H104.014L104.636 38.5917L105.51 35.5569H106.433L107.302 38.5965H107.3Z" fill="#81E561"/>
<path d="M112.779 40.3296C112.721 40.2154 112.679 40.0723 112.652 39.9014C112.343 40.2452 111.941 40.417 111.448 40.417C110.98 40.417 110.592 40.2816 110.285 40.0109C109.978 39.7401 109.824 39.3993 109.824 38.9874C109.824 38.4815 110.011 38.0936 110.387 37.8229C110.761 37.5521 111.304 37.4158 112.012 37.4129H112.599V37.1393C112.599 36.9185 112.542 36.7418 112.429 36.6103C112.316 36.4778 112.137 36.4115 111.893 36.4115C111.679 36.4115 111.51 36.4634 111.388 36.5661C111.266 36.6688 111.205 36.81 111.205 36.9895H109.93C109.93 36.713 110.015 36.4576 110.186 36.2214C110.357 35.9862 110.598 35.8019 110.909 35.6675C111.221 35.534 111.571 35.4668 111.959 35.4668C112.548 35.4668 113.015 35.6147 113.36 35.9104C113.706 36.2061 113.879 36.6218 113.879 37.1566V39.2255C113.882 39.6787 113.945 40.0205 114.069 40.2538V40.3287L112.779 40.3296ZM111.725 39.4435C111.913 39.4435 112.087 39.4012 112.246 39.3177C112.405 39.2342 112.522 39.1209 112.599 38.9807V38.1598H112.123C111.484 38.1598 111.145 38.3807 111.104 38.8213L111.099 38.8962C111.099 39.0546 111.155 39.1862 111.267 39.2889C111.379 39.3916 111.53 39.4435 111.725 39.4435Z" fill="#81E561"/>
<path d="M114.897 37.9083C114.897 37.1758 115.072 36.5863 115.421 36.1389C115.769 35.6924 116.239 35.4688 116.83 35.4688C117.353 35.4688 117.761 35.6483 118.052 36.0074L118.105 35.5571H119.261V40.1713C119.261 40.5889 119.166 40.9518 118.976 41.261C118.787 41.5701 118.519 41.8053 118.175 41.9666C117.831 42.1279 117.428 42.2095 116.966 42.2095C116.617 42.2095 116.275 42.1394 115.943 42.0002C115.611 41.861 115.359 41.6805 115.188 41.4597L115.754 40.683C116.072 41.0392 116.457 41.2168 116.91 41.2168C117.248 41.2168 117.512 41.1265 117.7 40.9451C117.888 40.7636 117.982 40.5073 117.982 40.1751V39.9188C117.687 40.2509 117.302 40.417 116.821 40.417C116.248 40.417 115.784 40.1924 115.429 39.744C115.075 39.2957 114.897 38.7004 114.897 37.9592V37.9064V37.9083ZM116.173 38.0034C116.173 38.4364 116.26 38.7753 116.434 39.022C116.607 39.2678 116.845 39.3907 117.148 39.3907C117.536 39.3907 117.814 39.2448 117.982 38.9529V36.9425C117.811 36.6506 117.537 36.5047 117.158 36.5047C116.851 36.5047 116.611 36.6295 116.436 36.8801C116.262 37.1307 116.174 37.5041 116.174 38.0024L116.173 38.0034Z" fill="#81E561"/>
<path d="M120.281 37.9083C120.281 37.1758 120.456 36.5863 120.804 36.1389C121.153 35.6924 121.622 35.4688 122.214 35.4688C122.737 35.4688 123.145 35.6483 123.436 36.0074L123.489 35.5571H124.645V40.1713C124.645 40.5889 124.55 40.9518 124.36 41.261C124.171 41.5701 123.903 41.8053 123.559 41.9666C123.215 42.1279 122.812 42.2095 122.35 42.2095C122.001 42.2095 121.659 42.1394 121.327 42.0002C120.995 41.861 120.743 41.6805 120.572 41.4597L121.138 40.683C121.455 41.0392 121.84 41.2168 122.294 41.2168C122.632 41.2168 122.896 41.1265 123.084 40.9451C123.272 40.7636 123.366 40.5073 123.366 40.1751V39.9188C123.071 40.2509 122.685 40.417 122.205 40.417C121.632 40.417 121.167 40.1924 120.813 39.744C120.459 39.2957 120.281 38.7004 120.281 37.9592V37.9064V37.9083ZM121.557 38.0034C121.557 38.4364 121.644 38.7753 121.817 39.022C121.991 39.2678 122.229 39.3907 122.532 39.3907C122.92 39.3907 123.198 39.2448 123.366 38.9529V36.9425C123.195 36.6506 122.921 36.5047 122.541 36.5047C122.235 36.5047 121.995 36.6295 121.82 36.8801C121.646 37.1307 121.558 37.5041 121.558 38.0024L121.557 38.0034Z" fill="#81E561"/>
<path d="M128.046 40.4177C127.346 40.4177 126.776 40.2036 126.337 39.7735C125.898 39.3443 125.678 38.7721 125.678 38.0569V37.933C125.678 37.4539 125.771 37.0248 125.955 36.6465C126.14 36.2692 126.404 35.9773 126.742 35.7728C127.082 35.5683 127.47 35.4666 127.905 35.4666C128.558 35.4666 129.072 35.672 129.447 36.0839C129.821 36.4958 130.01 37.0795 130.01 37.8351V38.3555H126.97C127.011 38.6675 127.135 38.9171 127.342 39.1053C127.55 39.2935 127.812 39.3876 128.13 39.3876C128.62 39.3876 129.004 39.2099 129.281 38.8537L129.907 39.5556C129.716 39.8263 129.457 40.0375 129.131 40.1883C128.806 40.339 128.443 40.4158 128.045 40.4158V40.4177H128.046ZM127.901 36.4958C127.648 36.4958 127.443 36.5812 127.286 36.7531C127.128 36.9249 127.028 37.1698 126.983 37.4885H128.757V37.3867C128.751 37.1035 128.674 36.8836 128.527 36.7281C128.379 36.5726 128.171 36.4958 127.9 36.4958H127.901Z" fill="#81E561"/>
<path d="M133.642 36.7521C133.468 36.7291 133.315 36.7166 133.183 36.7166C132.701 36.7166 132.384 36.8798 132.234 37.2062V40.3294H130.959V35.5559H132.163L132.199 36.1252C132.455 35.6874 132.809 35.4675 133.261 35.4675C133.403 35.4675 133.535 35.4867 133.659 35.5251L133.642 36.7521Z" fill="#81E561"/>
<path d="M16.2466 36.004C25.2194 36.004 32.4932 28.7301 32.4932 19.7573C32.4932 10.7846 25.2194 3.51074 16.2466 3.51074C7.27385 3.51074 0 10.7846 0 19.7573C0 28.7301 7.27385 36.004 16.2466 36.004Z" fill="#5ACD34"/>
<path d="M16.2466 32.0819C23.0533 32.0819 28.5712 26.564 28.5712 19.7573C28.5712 12.9505 23.0533 7.43262 16.2466 7.43262C9.43987 7.43262 3.92194 12.9505 3.92194 19.7573C3.92194 26.564 9.43987 32.0819 16.2466 32.0819Z" fill="#176833"/>
<path d="M18.04 23.014H14.4867L13.8665 25.0235H11.0967L15.0407 14.2686H17.4784L21.4522 25.0235H18.6679L18.04 23.014ZM15.1079 21.0132H17.4198L16.26 17.2832L15.1079 21.0132Z" fill="white"/>
<path d="M25.2319 0.5H19.6461L17.8613 3.59052C19.6317 3.76526 21.3167 4.22706 22.873 4.92408L25.2319 0.5Z" fill="#52C42B"/>
<path d="M16.2473 7.43309C18.4642 7.43309 20.5428 8.02163 22.34 9.04604L21.5086 7.4859L22.8748 4.92438C21.3175 4.22736 19.6326 3.76556 17.8631 3.59082L15.6357 7.44845C15.8393 7.43885 16.0419 7.43309 16.2473 7.43309Z" fill="#1E914A"/>
<path opacity="0.6" d="M19.5986 14.4722H25.2324L22.3396 9.04679C20.5424 8.02237 18.4638 7.43384 16.2469 7.43384C16.0415 7.43384 15.837 7.4396 15.6344 7.4492L15.6123 7.48664L19.5986 14.4722Z" fill="#5ACD34"/>
<path d="M31.7298 14.8232L34.1386 10.6526L30.1523 3.66699H24.5186L26.2909 6.99082C28.813 8.9782 30.7332 11.6933 31.7298 14.8232Z" fill="#52C42B"/>
<path d="M26.7912 13.3739C27.5717 14.6594 28.12 16.1015 28.3859 17.6386H30.1025L31.728 14.8236C30.7314 11.6937 28.8112 8.97763 26.2891 6.99121L28.2409 10.653L26.7902 13.3739H26.7912Z" fill="#1E914A"/>
<path opacity="0.6" d="M24.5186 17.6387H28.3877C28.1208 16.1007 27.5726 14.6596 26.793 13.374L24.5186 17.6387Z" fill="#5ACD34"/>
<path d="M155.494 32.3248H153.601V10.3906H155.494V32.3248Z" fill="#7E96A5"/>
<path d="M183.537 19.4254C183.537 22.5438 182.718 24.9008 181.084 26.4974C179.449 28.095 177.047 28.8929 173.878 28.8929H169.43V10.3142H174.45C177.416 10.3142 179.671 11.089 181.218 12.6395C182.763 14.1901 183.537 16.4521 183.537 19.4254ZM182.127 19.4773C182.127 16.8169 181.451 14.8161 180.1 13.4729C178.749 12.1307 176.764 11.4586 174.146 11.4586H170.728V27.7504H173.803C179.352 27.7504 182.127 24.993 182.127 19.4773Z" fill="white"/>
<path d="M193.068 29.1476C191.06 29.1476 189.495 28.5293 188.372 27.2917C187.249 26.0551 186.688 24.3222 186.688 22.0938C186.688 19.8914 187.23 18.1267 188.315 16.8008C189.399 15.475 190.86 14.8125 192.699 14.8125C194.325 14.8125 195.609 15.3799 196.55 16.5147C197.489 17.6505 197.96 19.1924 197.96 21.1404V22.1572H188.01C188.027 24.0553 188.469 25.5031 189.338 26.5035C190.206 27.5029 191.45 28.0031 193.068 28.0031C193.856 28.0031 194.549 27.9484 195.146 27.838C195.743 27.7276 196.5 27.4905 197.414 27.1266V28.2701C196.634 28.609 195.914 28.8394 195.253 28.9623C194.593 29.0852 193.864 29.1476 193.068 29.1476ZM192.7 15.931C191.369 15.931 190.302 16.3698 189.497 17.2463C188.692 18.1238 188.222 19.3873 188.086 21.0396H196.626C196.626 19.4382 196.279 18.1862 195.585 17.2838C194.89 16.3822 193.928 15.93 192.7 15.93V15.931Z" fill="white"/>
<path d="M210.338 25.2976C210.338 26.5352 209.869 27.4857 208.928 28.151C207.988 28.8163 206.653 29.1485 204.925 29.1485C203.077 29.1485 201.612 28.8653 200.527 28.2969V26.9365C201.917 27.6316 203.383 27.9782 204.925 27.9782C206.289 27.9782 207.324 27.7516 208.031 27.2984C208.738 26.8453 209.092 26.2414 209.092 25.4877C209.092 24.7926 208.81 24.2079 208.246 23.7336C207.683 23.2594 206.757 22.7937 205.47 22.3357C204.089 21.8355 203.119 21.4064 202.56 21.0464C202.001 20.6863 201.58 20.2792 201.295 19.8261C201.011 19.3729 200.87 18.8199 200.87 18.168C200.87 17.134 201.304 16.317 202.173 15.715C203.041 15.114 204.254 14.8125 205.814 14.8125C207.305 14.8125 208.719 15.0919 210.058 15.6516L209.588 16.7951C208.233 16.2354 206.974 15.956 205.814 15.956C204.686 15.956 203.794 16.1422 203.132 16.5147C202.472 16.8882 202.141 17.4047 202.141 18.0653C202.141 18.7853 202.398 19.3614 202.91 19.7934C203.422 20.2255 204.424 20.7084 205.915 21.2422C207.162 21.6915 208.067 22.0957 208.635 22.4558C209.203 22.8158 209.628 23.2248 209.912 23.6818C210.196 24.1388 210.338 24.6774 210.338 25.2957L210.338 25.2976Z" fill="white"/>
<path d="M213.72 11.2418C213.72 10.4286 213.986 10.0215 214.52 10.0215C214.783 10.0215 214.988 10.1271 215.137 10.3393C215.286 10.5515 215.359 10.852 215.359 11.2408C215.359 11.622 215.285 11.9225 215.137 12.1433C214.989 12.3641 214.784 12.4735 214.52 12.4735C213.986 12.4735 213.72 12.0636 213.72 11.2418ZM215.155 28.8939H213.897V15.0802H215.155V28.8939Z" fill="white"/>
<path d="M230.558 15.0794V15.9569L227.698 16.1345C228.461 17.0831 228.841 18.1257 228.841 19.2606C228.841 20.5903 228.398 21.6685 227.513 22.4951C226.627 23.3208 225.439 23.7346 223.948 23.7346C223.321 23.7346 222.881 23.7096 222.626 23.6578C222.126 23.9208 221.745 24.23 221.483 24.5852C221.221 24.9404 221.089 25.3187 221.089 25.7162C221.089 26.1569 221.257 26.4785 221.591 26.682C221.925 26.8856 222.487 26.9874 223.275 26.9874H225.69C227.19 26.9874 228.338 27.2898 229.134 27.8956C229.93 28.5014 230.328 29.3972 230.328 30.5829C230.328 32.0403 229.738 33.1646 228.555 33.9576C227.374 34.7497 225.69 35.1452 223.503 35.1452C221.766 35.1452 220.422 34.8102 219.469 34.1419C218.515 33.4727 218.039 32.5405 218.039 31.3462C218.039 30.3976 218.334 29.6094 218.922 28.9824C219.511 28.3555 220.31 27.9273 221.318 27.6988C220.902 27.5202 220.571 27.2687 220.32 26.9422C220.071 26.6158 219.945 26.2414 219.945 25.818C219.945 24.8944 220.533 24.0812 221.711 23.3774C220.907 23.0472 220.28 22.5277 219.831 21.8202C219.381 21.1126 219.158 20.3013 219.158 19.3863C219.158 18.0057 219.596 16.8978 220.473 16.0635C221.349 15.2292 222.533 14.8115 224.024 14.8115C224.931 14.8115 225.634 14.9008 226.134 15.0784H230.558V15.0794ZM219.375 31.2319C219.375 33.13 220.786 34.0786 223.607 34.0786C227.232 34.0786 229.046 32.9217 229.046 30.6098C229.046 29.7793 228.761 29.1773 228.194 28.8048C227.626 28.4323 226.707 28.2451 225.437 28.2451H223.175C220.641 28.2451 219.375 29.2407 219.375 31.2319ZM220.429 19.3883C220.429 20.4559 220.753 21.2844 221.401 21.873C222.05 22.4615 222.915 22.7562 224 22.7562C225.152 22.7562 226.036 22.4634 226.65 21.8787C227.265 21.294 227.572 20.4472 227.572 19.3374C227.572 18.1603 227.256 17.277 226.625 16.6875C225.994 16.099 225.111 15.8043 223.975 15.8043C222.874 15.8043 222.007 16.1201 221.376 16.7509C220.746 17.3817 220.43 18.2611 220.43 19.3883H220.429Z" fill="white"/>
<path d="M243.024 28.8939V19.9343C243.024 18.5451 242.731 17.5341 242.147 16.9033C241.563 16.2726 240.656 15.9567 239.428 15.9567C237.775 15.9567 236.567 16.3743 235.799 17.2087C235.032 18.043 234.649 19.3967 234.649 21.2689V28.8939H233.392V15.0801H234.458L234.7 16.9734H234.776C235.675 15.5333 237.271 14.8132 239.567 14.8132C242.702 14.8132 244.268 16.4953 244.268 19.8585V28.8939H243.024Z" fill="white"/>
</g>
<defs>
<clipPath id="clip0_1157_7556">
<rect width="244.269" height="42" fill="white" transform="translate(0 0.5)"/>
</clipPath>
</defs>
</svg>
