<svg width="80" height="10" viewBox="0 0 80 10" fill="none" xmlns="http://www.w3.org/2000/svg">
<g clip-path="url(#clip0_31520_8838)">
<path d="M24.7118 4.52761C24.7118 4.52761 23.4778 4.38683 22.9671 4.38683C22.2266 4.38683 21.8479 4.6508 21.8479 5.17117C21.8479 5.7343 22.1647 5.86716 23.1961 6.14926C24.4651 6.50122 24.9231 6.83663 24.9231 7.86752C24.9231 9.18947 24.095 9.7621 22.9052 9.7621C22.2421 9.73387 21.5822 9.65426 20.9314 9.524L21.0284 8.73984C21.0284 8.73984 22.218 8.89822 22.8438 8.89822C23.5925 8.89822 23.9362 8.56386 23.9362 7.92876C23.9362 7.41842 23.6631 7.24138 22.7378 7.02123C21.4336 6.68687 20.8696 6.28969 20.8696 5.24138C20.8696 4.02519 21.6716 3.52295 22.8788 3.52295C23.5204 3.54735 24.1595 3.61793 24.791 3.73412L24.7118 4.52761Z" fill="white"/>
<path d="M27.2694 3.62939H28.9704L30.3186 8.34369L31.6668 3.62939H33.3763V9.66547H32.3894V4.44875H32.3374L30.8298 9.41875H29.8074L28.2996 4.44875H28.2468V9.66547H27.2686L27.2694 3.62939Z" fill="white"/>
<path d="M48.5254 3.62939H52.9312V4.50155H51.2307V9.66547H50.2438V4.50155H48.5254V3.62939Z" fill="white"/>
<path d="M57.1877 3.62939C58.3863 3.62939 59.0295 4.07867 59.0295 5.19789C59.0295 5.92926 58.8007 6.29037 58.3158 6.55487C58.8356 6.75742 59.1793 7.1275 59.1793 7.95584C59.1793 9.1898 58.4303 9.66547 57.2583 9.66547H54.8965V3.62939H57.1877ZM55.8747 4.47515V6.20238H57.1701C57.7695 6.20238 58.0337 5.90322 58.0337 5.31228C58.0337 4.73155 57.7345 4.47515 57.1349 4.47515H55.8747ZM55.8747 7.03089V8.81972H57.2055C57.8133 8.81972 58.1746 8.62614 58.1746 7.90304C58.1746 7.21567 57.6643 7.03089 57.1877 7.03089H55.8747Z" fill="white"/>
<path d="M61.604 3.62939H65.4113V4.48412H62.5821V6.19341H64.8821V7.03089H62.5821V8.80194H65.4113V9.66547H61.604V3.62939Z" fill="white"/>
<path d="M68.9185 3.62939H70.8668L72.3647 9.66547H71.3771L70.9314 7.89442H68.853L68.4075 9.66547H67.4292L68.9185 3.62939ZM69.0486 7.03089H70.7418L70.1169 4.44875H69.677L69.0486 7.03089Z" fill="white"/>
<path d="M75.5191 7.87664V9.66547H74.541V3.62939H76.8324C78.163 3.62939 78.8768 4.39173 78.8768 5.73093C78.8768 6.58566 78.5331 7.3568 77.8899 7.65632L78.8858 9.66547H77.8105L76.938 7.87664H75.5191ZM76.8324 4.47515H75.5193V7.03089H76.85C77.5902 7.03089 77.8719 6.36534 77.8719 5.73991C77.8719 5.05236 77.5372 4.47515 76.8324 4.47515Z" fill="white"/>
<path d="M36.9986 3.62939H38.9458L40.4439 9.66547H39.457L39.0113 7.89442H36.9329L36.4874 9.66547H35.5093L36.9986 3.62939ZM37.1285 7.03089H38.821L38.1963 4.44875H37.7564L37.1285 7.03089Z" fill="white"/>
<path d="M43.5994 7.87664V9.66547H42.6211V3.62939H44.9125C46.2429 3.62939 46.9567 4.39173 46.9567 5.73093C46.9567 6.58566 46.613 7.3568 45.9698 7.65632L46.9657 9.66547H45.8906L45.0181 7.87664H43.5994ZM44.9125 4.47515H43.5994V7.03089H44.9301C45.6703 7.03089 45.9522 6.36534 45.9522 5.73991C45.9522 5.05236 45.6175 4.47515 44.9125 4.47515V4.47515Z" fill="white"/>
<path d="M10.3043 8.47074H7.5062L7.00977 10H10.8007L10.3043 8.47074ZM17.8096 10L16.3414 5.48157L17.2897 2.5626L13.763 0L11.2788 1.80519H6.53075L4.04751 0L0.519842 2.5626L1.46819 5.48157L0 10H4.63212L4.27224 8.89133L8.90453 5.52574L13.5374 8.89151L13.1775 10.0002L17.8096 10Z" fill="#FF730B"/>
</g>
<defs>
<clipPath id="clip0_31520_8838">
<rect width="79.118" height="10" fill="white"/>
</clipPath>
</defs>
</svg>
