<svg width="36" height="36" viewBox="0 0 36 36" fill="none" xmlns="http://www.w3.org/2000/svg">
<rect x="0.5" y="0.5" width="35" height="35" rx="17.5" fill="url(#paint0_linear_100_58672)"/>
<rect x="0.5" y="0.5" width="35" height="35" rx="17.5" stroke="url(#paint1_linear_100_58672)"/>
<path d="M20.2188 12.6875L22 12L22.6563 10.25C22.6875 10.0938 22.8438 10 23 10C23.125 10 23.2813 10.0938 23.3125 10.25L24 12L25.75 12.6875C25.9063 12.7188 26 12.875 26 13C26 13.1563 25.9063 13.3125 25.75 13.3438L24 14L23.3125 15.7813C23.2813 15.9063 23.125 16 23 16C22.8438 16 22.6875 15.9063 22.6563 15.7813L22 14L20.2188 13.3438C20.0938 13.3125 20 13.1563 20 13C20 12.875 20.0938 12.7188 20.2188 12.6875ZM16.4063 12.3125L18.0312 15.875L21.5938 17.5C21.7813 17.5938 21.9063 17.7813 21.9063 17.9688C21.9063 18.1562 21.7813 18.3438 21.5938 18.4062L18.0312 20.0625L16.4063 23.625C16.3125 23.8125 16.125 23.9375 15.9375 23.9375C15.75 23.9375 15.5625 23.8125 15.5 23.625L13.8438 20.0625L10.2812 18.4375C10.0938 18.3438 10 18.1562 10 17.9688C10 17.7813 10.0938 17.5938 10.2812 17.5L13.8438 15.875L15.5 12.3125C15.5625 12.125 15.75 12 15.9375 12C16.125 12 16.3125 12.125 16.4063 12.3125ZM22 22L22.6563 20.25C22.6875 20.0938 22.8438 20 23 20C23.125 20 23.2813 20.0938 23.3125 20.25L24 22L25.75 22.6875C25.9063 22.7188 26 22.875 26 23C26 23.1563 25.9063 23.3125 25.75 23.3438L24 24L23.3125 25.7813C23.2813 25.9063 23.125 26 23 26C22.8438 26 22.6875 25.9063 22.6563 25.7813L22 24L20.2188 23.3438C20.0938 23.3125 20 23.1563 20 23C20 22.875 20.0938 22.7188 20.2188 22.6875L22 22Z" fill="url(#paint2_linear_100_58672)"/>
<defs>
<linearGradient id="paint0_linear_100_58672" x1="-1.00583e-07" y1="0.5" x2="36" y2="36.5" gradientUnits="userSpaceOnUse">
<stop stop-color="#F2ECFE"/>
<stop offset="1" stop-color="#E4EDFF"/>
</linearGradient>
<linearGradient id="paint1_linear_100_58672" x1="18" y1="5.78571" x2="41.1429" y2="35.3571" gradientUnits="userSpaceOnUse">
<stop stop-color="#A881FF"/>
<stop offset="1" stop-color="#4395FF"/>
</linearGradient>
<linearGradient id="paint2_linear_100_58672" x1="18" y1="12.5714" x2="28.2857" y2="25.7143" gradientUnits="userSpaceOnUse">
<stop stop-color="#9061F9"/>
<stop offset="1" stop-color="#006FFF"/>
</linearGradient>
</defs>
</svg>
