<svg width="20" height="20" viewBox="0 0 20 20" fill="none" xmlns="http://www.w3.org/2000/svg">
    <g clip-path="url(#clip0_2984_1022)">
        <path d="M9.54634 19.7976C14.4985 19.7976 18.5131 15.7831 18.5131 10.8309C18.5131 5.87869 14.4985 1.86414 9.54634 1.86414C4.59414 1.86414 0.57959 5.87869 0.57959 10.8309C0.57959 15.7831 4.59414 19.7976 9.54634 19.7976Z" fill="#5BD621"/>
        <path d="M9.54626 17.6328C13.3028 17.6328 16.3481 14.5875 16.3481 10.8309C16.3481 7.07436 13.3028 4.02905 9.54626 4.02905C5.78969 4.02905 2.74438 7.07436 2.74438 10.8309C2.74438 14.5875 5.78969 17.6328 9.54626 17.6328Z" fill="#037536"/>
        <g filter="url(#filter0_d_2984_1022)">
            <path d="M10.536 12.6289H8.5751L8.23273 13.7377H6.7041L8.88098 7.80237H10.2262L12.4194 13.7377H10.8826L10.536 12.6289ZM8.91773 11.5241H10.1937L9.55373 9.46549L8.91773 11.5241Z" fill="white"/>
        </g>
        <path d="M14.5055 0.202393H11.4226L10.4375 1.90827C11.4145 2.00464 12.3444 2.25964 13.2037 2.64414L14.5055 0.202393Z" fill="#52CE09"/>
        <path d="M9.54638 4.0287C10.77 4.0287 11.917 4.35345 12.909 4.91895L12.45 4.05795L13.2038 2.64408C12.3444 2.25958 11.4145 2.00458 10.4375 1.9082L9.20801 4.0372C9.32013 4.0317 9.43301 4.0287 9.54638 4.0287Z" fill="#009E4F"/>
        <path opacity="0.6" d="M11.3962 7.91356H14.5055L12.9092 4.91906C11.9172 4.35356 10.77 4.02881 9.54654 4.02881C9.43304 4.02881 9.32029 4.03181 9.20829 4.03731L9.19629 4.05806L11.3962 7.91356Z" fill="#5BD621"/>
        <path d="M18.091 8.10769L19.4203 5.80569L17.2205 1.9502H14.1111L15.0891 3.78482C16.4812 4.88145 17.541 6.38032 18.0911 8.10769H18.091Z" fill="#52CE09"/>
        <path d="M15.3657 7.30741C15.7964 8.01716 16.0989 8.81254 16.246 9.66129H17.1936L18.0907 8.10766C17.5407 6.38029 16.481 4.88141 15.0887 3.78479L16.1661 5.80566L15.3655 7.30741H15.3657Z" fill="#009E4F"/>
        <path opacity="0.6" d="M14.111 9.66137H16.2462C16.0991 8.81262 15.7965 8.01724 15.366 7.3075L14.111 9.66137Z" fill="#5BD621"/>
    </g>
    <defs>
        <filter id="filter0_d_2984_1022" x="-10.1579" y="-9.05963" width="45.3912" height="45.6114" filterUnits="userSpaceOnUse" color-interpolation-filters="sRGB">
            <feFlood flood-opacity="0" result="BackgroundImageFix"/>
            <feColorMatrix in="SourceAlpha" type="matrix" values="0 0 0 0 0 0 0 0 0 0 0 0 0 0 0 0 0 0 127 0" result="hardAlpha"/>
            <feOffset dx="2.976" dy="2.976"/>
            <feGaussianBlur stdDeviation="9.919"/>
            <feColorMatrix type="matrix" values="0 0 0 0 0.0823529 0 0 0 0 0.286275 0 0 0 0 0.0666667 0 0 0 0.75 0"/>
            <feBlend mode="normal" in2="BackgroundImageFix" result="effect1_dropShadow_2984_1022"/>
            <feBlend mode="normal" in="SourceGraphic" in2="effect1_dropShadow_2984_1022" result="shape"/>
        </filter>
        <clipPath id="clip0_2984_1022">
            <rect width="20" height="20" fill="white"/>
        </clipPath>
    </defs>
</svg>